<svg xmlns="http://www.w3.org/2000/svg">
    <symbol id="logo" viewBox="0 0 85 13">
        <path d="M.13 1.31q0-.24.1-.34.12-.1.34-.1h3.98q5.23 0 5.23 4.28 0 2.17-1.37 3.29-1.37 1.1-3.98 1.1h-1.1q-.15 0-.2.07-.05.05-.05.18v2.5q0 .23-.12.33-.1.1-.34.1H.57q-.22 0-.34-.1-.1-.12-.1-.34zm4.3 5.52q1.14 0 1.71-.4.6-.43.6-1.26 0-.83-.58-1.2-.56-.4-1.73-.4h-1.1q-.15 0-.2.08-.05.05-.05.18v2.75q0 .13.05.2.05.05.2.05zM11.4.45q0-.22.1-.33.1-.1.32-.1h1.98q.22 0 .32.1.12.1.12.33v4.87q.37-.49.96-.78.61-.28 1.3-.28 1.58 0 2.4 1.01.8 1 .8 3.02v4.13q0 .17-.06.24-.07.06-.22.06h-2.25q-.15 0-.24-.06-.07-.07-.07-.24V8.6q0-.9-.32-1.36-.3-.47-.98-.47-.68 0-1 .47-.32.46-.32 1.36v3.8q0 .18-.07.25-.07.06-.22.06H11.7q-.17 0-.24-.06-.07-.07-.07-.24zM21.32 8.6q0-1.26.57-2.26.6-1 1.63-1.56 1.05-.56 2.39-.56 1.33 0 2.38.56 1.05.56 1.63 1.56.6.98.6 2.23 0 1.26-.6 2.26-.58.98-1.64 1.54-1.05.56-2.4.56-1.33 0-2.38-.55-1.03-.55-1.6-1.54-.58-1-.58-2.23zm4.57 1.77q.46 0 .85-.22.38-.24.62-.64.24-.41.24-.94 0-.52-.24-.93-.24-.4-.62-.62-.4-.24-.85-.24-.46 0-.85.24-.37.22-.6.62-.21.4-.21.93t.22.94q.22.4.6.64.38.22.84.22zM31.78 6.91q-.22 0-.34-.1-.1-.12-.1-.34V4.88q0-.23.1-.34.1-.11.34-.11h1.19V2.5q0-.24.1-.34.12-.1.34-.1h1.91q.24 0 .34.1.12.1.12.34v1.93h1.2q.24 0 .34.11.1.1.1.34v1.6q0 .21-.1.33-.1.1-.34.1h-1.2v5.37q0 .24-.12.34-.1.1-.34.1h-1.91q-.22 0-.34-.1-.1-.12-.1-.34V6.91ZM38.3 8.6q0-1.26.58-2.26.59-1 1.62-1.56 1.05-.56 2.39-.56t2.39.56q1.05.56 1.62 1.56.6.98.6 2.23 0 1.26-.6 2.26-.57.98-1.64 1.54-1.05.56-2.39.56t-2.39-.55q-1.03-.55-1.6-1.54-.58-1-.58-2.23zm4.57 1.77q.46 0 .85-.22.39-.24.63-.64.23-.41.23-.94 0-.52-.23-.93-.24-.4-.63-.62-.39-.24-.85-.24-.45 0-.84.24-.38.22-.6.62-.22.4-.22.93t.22.94q.22.4.6.64.39.22.84.22zM48.2 4.83l-.04-.08-.02-.14q0-.08.07-.13.06-.05.18-.05h2.4q.21 0 .3.08.1.07.22.3l1.59 3.07 1.8-3.01q.16-.24.26-.34.12-.1.26-.1.13 0 .25.1.14.1.27.34l1.81 3.01 1.58-3.06q.13-.24.2-.31.09-.08.29-.08h2.37q.12 0 .19.05.06.05.06.13 0 .05-.03.14l-.03.08-3.8 7.57q-.15.3-.28.44-.12.14-.28.14-.15 0-.28-.14-.14-.13-.32-.44L55.2 9.1l-2.05 3.3q-.19.3-.34.44-.13.14-.27.14-.15 0-.29-.14-.11-.13-.27-.44zM63.28 1.67q0-.46.2-.83.2-.38.56-.6.37-.22.86-.22.5 0 .87.22t.57.6q.2.37.2.83 0 .45-.2.83-.2.37-.57.59-.38.2-.87.2t-.86-.2q-.36-.22-.56-.6-.2-.37-.2-.82zm.2 3.2q0-.24.1-.34.12-.1.34-.1h1.95q.23 0 .34.1.12.1.12.34v7.41q0 .24-.12.34-.1.1-.34.1h-1.95q-.22 0-.34-.1-.1-.12-.1-.34zM68.66 10.17q.1-.17.22-.17t.29.1q.5.32 1.15.54.66.2 1.19.2.44 0 .62-.1.19-.12.19-.37 0-.15-.1-.25t-.37-.2l-.63-.18-.5-.13q-1.35-.4-2.02-1.02-.66-.63-.66-1.66 0-.86.44-1.47.45-.61 1.21-.92.78-.32 1.75-.32 2.13 0 3.45 1.02.16.1.16.24 0 .1-.09.23l-.73 1.24q-.1.17-.23.17-.12 0-.28-.1-1.23-.71-2.13-.71-.71 0-.71.45 0 .17.15.29.15.12.44.22.3.1.88.25 1.02.28 1.61.61.61.33.9.83.3.5.3 1.24 0 1.27-.9 2t-2.67.73q-2.12 0-3.57-1.04-.12-.06-.17-.12-.03-.06-.03-.15 0-.07.08-.23zM84.38 11.25q.08.17.08.29 0 .18-.25.37-.73.53-1.58.78-.84.24-1.96.24-1.32 0-2.3-.55-.99-.55-1.53-1.54-.52-.98-.52-2.23 0-1.27.54-2.27t1.52-1.56q.98-.56 2.25-.56t2.22.56q.97.54 1.5 1.53.52.96.52 2.23V9q0 .17-.07.23-.07.07-.22.07h-5.39q.1.68.58 1.05.5.37 1.19.37.62 0 1.13-.15.5-.17 1.02-.47.23-.15.37-.15.15 0 .27.2zm-2.4-3.73q-.06-.57-.41-.91-.34-.36-.94-.36-.52 0-.9.33-.35.32-.5.94z"/>
    </symbol>

    <symbol id="favor" viewBox="0 0 24 24">
        <path d="m13.73 3.51 1.76 3.52c.24.49.88.96 1.42 1.05l3.2.53c2.03.34 2.51 1.82 1.04 3.28l-2.48 2.48a2.17 2.17 0 0 0-.52 1.81l.71 3.07c.56 2.43-.73 3.37-2.88 2.1L13 19.58a2.16 2.16 0 0 0-1.98 0l-2.99 1.77c-2.14 1.27-3.44.32-2.88-2.1l.71-3.07c.13-.58-.1-1.39-.52-1.81l-2.48-2.48C1.4 10.43 1.86 8.95 3.9 8.61l3.2-.53a2.18 2.18 0 0 0 1.4-1.05l1.76-3.52c.96-1.91 2.52-1.91 3.47 0Z"/>
    </symbol>

    <symbol id="album" viewBox="0 0 24 24">
        <path d="M9 22H15C20 22 22 20 22 15V9C22 4 20 2 15 2H9C4 2 2 4 2 9V15C2 20 4 22 9 22Z"/>
        <path opacity="0.4" d="M9 2L13.95 22"/>
        <path opacity="0.4" d="M11.53 12.2202L2 15.0002"/>
    </symbol>

    <symbol id="animal" viewBox="0 0 24 24">
        <path d="M4.33 16.35a4.78 4.78 0 0 0 4.84 5.25h4.8c3.25 0 5.5-2.63 4.95-5.85a7.65 7.65 0 0 0-7.26-6.15 7.51 7.51 0 0 0-7.33 6.75z"/>
        <path d="M9.75 6.7a2.5 2.5 0 1 0 0-5 2.5 2.5 0 0 0 0 5zM17.22 7.9a2 2 0 1 0 0-4 2 2 0 0 0 0 4zM21.56 12.62a1.5 1.5 0 1 0 0-3 1.5 1.5 0 0 0 0 3zM3.1 10.3a2 2 0 1 0 0-4 2 2 0 0 0 0 4z"
              opacity=".4"/>
    </symbol>

    <symbol id="calendar" viewBox="0 0 24 24">
        <path d="M8 2V5"/>
        <path d="M16 2V5"/>
        <path opacity="0.4" d="M3.5 9.08984H20.5"/>
        <path d="M21 8.5V17C21 20 19.5 22 16 22H8C4.5 22 3 20 3 17V8.5C3 5.5 4.5 3.5 8 3.5H16C19.5 3.5 21 5.5 21 8.5Z"/>
        <path opacity="0.4" d="M11.9955 13.7002H12.0045" stroke-width="2" stroke-linecap="round"/>
        <path opacity="0.4" d="M8.29431 13.7002H8.30329" stroke-width="2" stroke-linecap="round"/>
        <path opacity="0.4" d="M8.29492 16.7002H8.3039" stroke-width="2" stroke-linecap="round"/>
    </symbol>

    <symbol id="cloud" viewBox="0 0 24 24">
        <path d="M12.97 20h-4" opacity=".4"/>
        <path d="M16.61 20a5.32 5.32 0 0 0 3.62-1.39c3.27-2.86 1.52-8.6-2.79-9.14C15.9.13 2.43 3.67 5.62 12.56"/>
        <path d="M7.28 12.97a3.64 3.64 0 0 0-1.71-.4c-4.66.33-4.65 7.11 0 7.44M15.82 9.89c.52-.26 1.08-.4 1.66-.41"/>
    </symbol>

    <symbol id="camera" viewBox="0 0 24 24">
        <path d="M6.76 22h10.48c2.76 0 3.86-1.69 3.99-3.75l.52-8.26A3.753 3.753 0 0 0 18 6c-.61 0-1.17-.35-1.45-.89l-.72-1.45C15.37 2.75 14.17 2 13.15 2h-2.29c-1.03 0-2.23.75-2.69 1.66l-.72 1.45C7.17 5.65 6.61 6 6 6 3.83 6 2.11 7.83 2.25 9.99l.52 8.26C2.89 20.31 4 22 6.76 22Z"/>
        <path d="M10.5 8h3M12 18c1.79 0 3.25-1.46 3.25-3.25S13.79 11.5 12 11.5s-3.25 1.46-3.25 3.25S10.21 18 12 18Z" opacity=".4"/>
    </symbol>

    <symbol id="cross" viewBox="0 0 24 24">
        <path d="M19 6.41L17.59 5 12 10.59 6.41 5 5 6.41 10.59 12 5 17.59 6.41 19 12 13.41 17.59 19 19 17.59 13.41 12 19 6.41z"/>
    </symbol>

    <symbol id="folder" viewBox="0 0 24 24">
        <path d="M22 11V17C22 21 21 22 17 22H7C3 22 2 21 2 17V7C2 3 3 2 7 2H8.5C10 2 10.33 2.44 10.9 3.2L12.4 5.2C12.78 5.7 13 6 14 6H17C21 6 22 7 22 11Z"/>
        <path opacity="0.4" d="M8 2H17C19 2 20 3 20 5V6.38"/>
    </symbol>

    <symbol id="info" viewBox="0 0 24 24">
        <path d="M11 7h2v2h-2zm0 4h2v6h-2zm1-9C6.48 2 2 6.48 2 12s4.48 10 10 10 10-4.48 10-10S17.52 2 12 2zm0 18c-4.41 0-8-3.59-8-8s3.59-8 8-8 8 3.59 8 8-3.59 8-8 8z"/>
    </symbol>

    <symbol id="library" viewBox="0 0 24 24">
        <path d="M22.8 13.96a5.56 5.56 0 0 1-1.78 5.15 5.8 5.8 0 0 1-3.97 1.53H4.95c-5.1-.37-5.1-7.8 0-8.16h.06C2.6 5.79 8.82 1.86 13.5 3.37"/>
        <path d="M6.83 12.92A4.23 4.23 0 0 0 5 12.48"/>
        <path d="M22.87 8c0 1.2-.55 2.28-1.44 2.98A3.82 3.82 0 0 1 15.23 8c0-1.04.43-2 1.13-2.68v-.01a3.82 3.82 0 0 1 6.51 2.7z"
              opacity=".4"/>
    </symbol>

    <symbol id="location" viewBox="0 0 24 24">
        <path d="M12 13.57a3.4 3.4 0 1 0 0-6.8 3.4 3.4 0 0 0 0 6.8z" opacity=".4"/>
        <path d="M2.85 8.18C5-1.27 19.01-1.26 21.15 8.2c1.25 5.55-2.2 10.24-5.22 13.14a5.67 5.67 0 0 1-7.87 0c-3.01-2.9-6.46-7.6-5.2-13.15Z"/>
    </symbol>

    <symbol id="login" viewBox="0 0 24 24">
        <path d="M12 14.8 15 12 12 9.2M2.6 12h12.3" opacity=".4"/>
        <path d="M12 2.6c4.7 0 9.5 3.7 9.5 9.4s-4.8 9.4-9.5 9.4"/>
    </symbol>

    <symbol id="logout" viewBox="0 0 24 24">
        <path d="m18.7 14.9 2.8-2.9-2.8-2.9M9.2 12h12.3" opacity=".4"/>
        <path d="M12 21.5A9.5 9.5 0 0 1 2.5 12c0-5.7 4.8-9.5 9.5-9.5"/>
    </symbol>

    <symbol id="map" viewBox="0 0 24 24">
        <path d="M2.14 7.3v10.83c0 2.11 1.35 2.98 3 1.94l2.34-1.5a2.03 2.03 0 0 1 1.9-.05l5.25 2.93c.53.29 1.38.26 1.89-.06l4.33-2.76a2.56 2.56 0 0 0 1-1.94V5.86c0-2.12-1.34-2.98-2.98-1.94l-2.35 1.5c-.51.32-1.36.35-1.9.05L9.38 2.55a2.06 2.06 0 0 0-1.89.06L3.15 5.37a2.53 2.53 0 0 0-1 1.93z"/>
        <path d="M8.42 3.09v14.47M15.59 6v14.9" opacity=".4"/>
    </symbol>

    <symbol id="people" viewBox="0 0 24 24">
        <path d="M12.12 12.78a.963.963 0 0 0-.24 0 3.269 3.269 0 0 1-3.16-3.27c0-1.81 1.46-3.28 3.28-3.28a3.276 3.276 0 0 1 .12 6.55ZM18.74 19.38A9.934 9.934 0 0 1 12 22c-2.6 0-4.96-.99-6.74-2.62.1-.94.7-1.86 1.77-2.58 2.74-1.82 7.22-1.82 9.94 0 1.07.72 1.67 1.64 1.77 2.58Z"
              opacity=".4"/>
        <path d="M12 22c5.523 0 10-4.477 10-10S17.523 2 12 2 2 6.477 2 12s4.477 10 10 10Z"/>
    </symbol>

    <symbol id="photo" viewBox="0 0 24 24">
        <path d="M9 22h6c5 0 7-2 7-7V9c0-5-2-7-7-7H9C4 2 2 4 2 9v6c0 5 2 7 7 7Z"/>
        <path d="M9 10a2 2 0 1 0 0-4 2 2 0 0 0 0 4ZM2.7 19l4.9-3.4c.8-.5 2-.4 2.6.2l.4.3c.7.6 2 .6 2.8 0l4.1-3.6c.8-.7 2-.7 2.9 0l1.6 1.4"
              opacity=".4"/>
    </symbol>

    <symbol id="search" viewBox="0 0 24 24">
        <path d="M16.67 16.64 21 21m-2-10a8 8 0 1 1-16 0 8 8 0 0 1 16 0Z"/>
    </symbol>

    <symbol id="setting" viewBox="0 0 24 24">
        <path d="M12 15a3 3 0 1 0 0-6 3 3 0 0 0 0 6Z" opacity=".4"/>
        <path d="M2 12.88v-1.76c0-1.04.85-1.9 1.9-1.9 1.81 0 2.55-1.28 1.64-2.85a1.9 1.9 0 0 1 .7-2.59l1.73-.99a1.67 1.67 0 0 1 2.28.6l.11.19c.9 1.57 2.38 1.57 3.29 0l.11-.19a1.67 1.67 0 0 1 2.28-.6l1.73.99a1.9 1.9 0 0 1 .7 2.59c-.91 1.57-.17 2.85 1.64 2.85 1.04 0 1.9.85 1.9 1.9v1.76a1.9 1.9 0 0 1-1.9 1.9c-1.81 0-2.55 1.28-1.64 2.85a1.9 1.9 0 0 1-.7 2.59l-1.73.99c-.79.47-1.81.19-2.28-.6l-.11-.19c-.9-1.57-2.38-1.57-3.29 0l-.11.19a1.67 1.67 0 0 1-2.28.6l-1.73-.99a1.9 1.9 0 0 1-.7-2.59c.91-1.57.17-2.85-1.64-2.85a1.9 1.9 0 0 1-1.9-1.9Z"/>
    </symbol>

    <symbol id="things" viewBox="0 0 24 24">
        <path d="M14 16c0 1.77-.77 3.37-2 4.46A5.93 5.93 0 0 1 8 22c-3.31 0-6-2.69-6-6 0-2.76 1.88-5.1 4.42-5.79a6.019 6.019 0 0 0 4 3.58c.5.14 1.03.21 1.58.21s1.08-.07 1.58-.21c.27.68.42 1.43.42 2.21Z"/>
        <path d="M18 8a5.993 5.993 0 0 1-4.42 5.79c-.5.14-1.03.21-1.58.21s-1.08-.07-1.58-.21A5.993 5.993 0 0 1 6 8c0-3.31 2.69-6 6-6s6 2.69 6 6Z"/>
        <path d="M22 16c0 3.31-2.69 6-6 6a5.93 5.93 0 0 1-4-1.54c1.23-1.09 2-2.69 2-4.46 0-.78-.15-1.53-.42-2.21 1.83-.5 3.31-1.84 4-3.58C20.12 10.9 22 13.24 22 16Z"
              opacity=".4"/>
    </symbol>

    <symbol id="trash" viewBox="0 0 24 24">
        <path d="M2 7.85c0-1.85.99-2 2.22-2h15.56c1.23 0 2.22.15 2.22 2 0 2.15-.99 2-2.22 2H4.22C2.99 9.85 2 10 2 7.85Z"/>
        <path d="M8.8 2 5.2 5.63M15.19 2l3.62 3.63M9.76 14v3.55M14.36 14v3.55" opacity=".4"/>
        <path d="m3.5 10 1.41 8.64C5.23 20.58 6 22 8.86 22h6.03c3.11 0 3.57-1.36 3.93-3.24L20.5 10"/>
    </symbol>

    <symbol id="upload" viewBox="0 0 24 24">
        <path d="M16.77 8.11c3.87.34 5.45 2.32 5.45 6.67v.14c0 4.8-1.92 6.73-6.72 6.73h-7c-4.8 0-6.72-1.93-6.72-6.73v-.14c0-4.31 1.56-6.3 5.36-6.65"/>
        <path d="M15.6 5.38 12 1.78l-3.6 3.6m3.6 9.74V2.9" opacity=".4"/>
    </symbol>

    <symbol id="video" viewBox="0 0 24 24">
        <path d="M22 15V9c0-5-2-7-7-7H9C4 2 2 4 2 9v6c0 5 2 7 7 7h6c5 0 7-2 7-7ZM2.52 7.11h18.96M8.52 2.11v4.86M15.48 2.11v4.41"/>
        <path d="M9.75 14.45v-1.2c0-1.54 1.09-2.17 2.42-1.4l1.04.6 1.04.6c1.33.77 1.33 2.03 0 2.8l-1.04.6-1.04.6c-1.33.77-2.42.14-2.42-1.4v-1.2Z"
              opacity=".4"/>
    </symbol>
</svg>