<svg viewBox="0 0 24 24" fill="none" xmlns="http://www.w3.org/2000/svg" stroke="#333" stroke-width="1.5">
  <path d="m 22.795955,13.960367 c 0.294509,1.821592 -0.218155,3.774075 -1.77796,5.148451 -1.079866,0.992603 -2.497872,1.537991 -3.970416,1.527082 H 4.9508479 c -5.09390733,-0.370863 -5.10481506,-7.788121 0,-8.158985 h 0.054538 C 2.6165929,5.7905066 8.8230936,1.8637114 13.502566,3.3689788"/>
  <path d="M 6.8274037,12.924023 C 6.2602016,12.640422 5.6384608,12.487714 5.0058121,12.476805"/>
  <path opacity="0.4" d="m 22.873619,8.0045257 c 0,1.199851 -0.556295,2.2797173 -1.439822,2.9778113 -0.643556,0.523572 -1.483451,0.839896 -2.377885,0.839896 -2.105193,0 -3.817708,-1.712514 -3.817708,-3.8177073 0,-1.0471423 0.425402,-1.9961153 1.123497,-2.6833026 v -0.010908 c 0.687187,-0.6980949 1.647068,-1.1234965 2.694211,-1.1234965 2.105192,0 3.817707,1.7125142 3.817707,3.8177071 z"/>
</svg>