<svg viewBox="0 0 85 13" xmlns="http://www.w3.org/2000/svg">
  <path d="m 0.13295021,1.3099439 q 0,-0.2370662 0.1015998,-0.33866598 0.1185331,-0.1015998 0.338666,-0.1015998 H 4.5525415 q 5.2323897,0 5.2323897,4.28412488 0,2.1674624 -1.3715973,3.2850602 Q 7.0417366,9.5395277 4.4340084,9.5395277 H 3.3333439 q -0.1523997,0 -0.2031996,0.067733 -0.0508,0.0508 -0.0508,0.1862663 v 2.4891948 q 0,0.237067 -0.1185331,0.338666 -0.1015998,0.1016 -0.338666,0.1016 H 0.57321601 q -0.2201329,0 -0.338666,-0.1016 -0.1015998,-0.118533 -0.1015998,-0.338666 z M 4.4340084,6.8301997 q 1.1345311,0 1.7102633,-0.4063992 Q 6.7369372,6.000468 6.7369372,5.1707363 6.7369372,4.3410046 6.161205,3.968472 5.6024061,3.5790061 4.4340084,3.5790061 H 3.3333439 q -0.1523997,0 -0.2031996,0.067733 -0.0508,0.0508 -0.0508,0.1862663 v 2.7431946 q 0,0.1354664 0.0508,0.2031996 0.0508,0.0508 0.2031996,0.0508 z"/>
  <path d="m 11.393582,0.44634562 q 0,-0.2201329 0.1016,-0.3217327 0.1016,-0.10159981 0.321733,-0.10159981 h 1.981196 q 0.220133,0 0.321733,0.10159981 0.118533,0.1015998 0.118533,0.3217327 V 5.323136 q 0.372532,-0.4910657 0.965198,-0.7789318 0.609599,-0.2878661 1.303864,-0.2878661 1.574797,0 2.387595,1.015998 0.812799,0.9990647 0.812799,3.0141274 v 4.1317255 q 0,0.169333 -0.06773,0.237066 -0.06773,0.06773 -0.220133,0.06773 h -2.252128 q -0.1524,0 -0.237067,-0.06773 -0.06773,-0.06773 -0.06773,-0.237066 V 8.6081962 q 0,-0.8974649 -0.321733,-1.354664 -0.304799,-0.4741324 -0.982131,-0.4741324 -0.677332,0 -0.999065,0.4741324 -0.321732,0.4571991 -0.321732,1.354664 v 3.8099928 q 0,0.169333 -0.06773,0.237066 -0.06773,0.06773 -0.220132,0.06773 h -2.252129 q -0.169333,0 -0.237067,-0.06773 -0.06773,-0.06773 -0.06773,-0.237066 z"/>
  <path d="m 21.316483,8.6081962 q 0,-1.2699975 0.575732,-2.2690622 0.592666,-0.9990647 1.625597,-1.5578636 1.049864,-0.5587989 2.387595,-0.5587989 1.337731,0 2.387595,0.5587989 1.049865,0.5587989 1.625597,1.5578636 0.592666,0.9821314 0.592666,2.2351956 0,1.2530642 -0.592666,2.2521294 -0.575732,0.982131 -1.64253,1.54093 -1.049864,0.558799 -2.387595,0.558799 -1.337731,0 -2.387595,-0.541866 -1.032932,-0.558799 -1.608664,-1.54093 -0.575732,-0.9990649 -0.575732,-2.2351958 z m 4.571991,1.7610628 q 0.457199,0 0.846665,-0.220132 0.389466,-0.2370667 0.626532,-0.6434659 0.237066,-0.4063992 0.237066,-0.9313315 0,-0.5249323 -0.237066,-0.9313315 Q 27.124605,7.2365989 26.735139,7.016466 26.345673,6.7793998 25.888474,6.7793998 q -0.457199,0 -0.846665,0.2370662 -0.372533,0.2201329 -0.592666,0.6265321 -0.220133,0.4063992 -0.220133,0.9313315 0,0.5249323 0.220133,0.9313315 0.220133,0.4063992 0.592666,0.6434659 0.389466,0.220132 0.846665,0.220132 z"/>
  <path d="m 31.781244,6.9148662 q -0.220133,0 -0.338666,-0.1015998 -0.1016,-0.1185331 -0.1016,-0.338666 V 4.8828702 q 0,-0.2370662 0.1016,-0.338666 0.1016,-0.1185331 0.338666,-0.1185331 h 1.185331 V 2.4952749 q 0,-0.2370662 0.1016,-0.338666 0.118533,-0.1015998 0.338666,-0.1015998 h 1.913463 q 0.237066,0 0.338666,0.1015998 0.118533,0.1015998 0.118533,0.338666 v 1.9303962 h 1.202264 q 0.237066,0 0.338666,0.1185331 0.1016,0.1015998 0.1016,0.338666 v 1.5917302 q 0,0.2201329 -0.1016,0.338666 -0.1016,0.1015998 -0.338666,0.1015998 h -1.202264 v 5.3678558 q 0,0.237067 -0.118533,0.338666 -0.1016,0.1016 -0.338666,0.1016 h -1.913463 q -0.220133,0 -0.338666,-0.1016 -0.1016,-0.118533 -0.1016,-0.338666 V 6.9148662 Z"/>
  <path d="m 38.300555,8.6081962 q 0,-1.2699975 0.575732,-2.2690622 0.592665,-0.9990647 1.625597,-1.5578636 1.049864,-0.5587989 2.387595,-0.5587989 1.337731,0 2.387595,0.5587989 1.049865,0.5587989 1.625597,1.5578636 0.592665,0.9821314 0.592665,2.2351956 0,1.2530642 -0.592665,2.2521294 -0.575732,0.982131 -1.64253,1.54093 -1.049865,0.558799 -2.387595,0.558799 -1.337731,0 -2.387596,-0.541866 -1.032931,-0.558799 -1.608663,-1.54093 -0.575732,-0.9990649 -0.575732,-2.2351958 z m 4.571991,1.7610628 q 0.457199,0 0.846665,-0.220132 0.389465,-0.2370667 0.626532,-0.6434659 0.237066,-0.4063992 0.237066,-0.9313315 0,-0.5249323 -0.237066,-0.9313315 Q 44.108676,7.2365989 43.719211,7.016466 43.329745,6.7793998 42.872546,6.7793998 q -0.4572,0 -0.846665,0.2370662 -0.372533,0.2201329 -0.592666,0.6265321 -0.220133,0.4063992 -0.220133,0.9313315 0,0.5249323 0.220133,0.9313315 0.220133,0.4063992 0.592666,0.6434659 0.389465,0.220132 0.846665,0.220132 z"/>
  <path d="m 48.206499,4.8320703 q -0.01693,-0.016933 -0.0508,-0.084666 -0.01693,-0.084666 -0.01693,-0.1354664 0,-0.084666 0.06773,-0.1354664 0.06773,-0.0508 0.186266,-0.0508 h 2.404529 q 0.203199,0 0.287866,0.084666 0.1016,0.067733 0.220133,0.3047994 l 1.59173,3.0649273 1.811863,-3.0141274 q 0.1524,-0.2370662 0.254,-0.338666 0.118533,-0.1015998 0.253999,-0.1015998 0.135466,0 0.254,0.1015998 0.135466,0.1015998 0.270932,0.338666 L 57.55368,7.8800643 59.128477,4.815137 q 0.135467,-0.2370662 0.2032,-0.3047994 0.08467,-0.084666 0.287866,-0.084666 h 2.370662 q 0.118533,0 0.186266,0.0508 0.06773,0.0508 0.06773,0.1354664 0,0.0508 -0.03387,0.1354664 -0.01693,0.067733 -0.03387,0.084666 l -3.793059,7.5691847 q -0.1524,0.3048 -0.287866,0.440266 -0.118533,0.135467 -0.270933,0.135467 -0.152399,0 -0.287866,-0.135467 -0.135466,-0.135466 -0.321733,-0.440266 l -2.015062,-3.3019931 -2.04893,3.3019931 q -0.186266,0.3048 -0.338666,0.440266 -0.135466,0.135467 -0.270932,0.135467 -0.1524,0 -0.287866,-0.135467 -0.118534,-0.135466 -0.270933,-0.440266 z"/>
  <path d="m 63.277122,1.6655432 q 0,-0.4571991 0.2032,-0.82973168 0.203199,-0.3725326 0.558799,-0.5926655 0.372532,-0.22013291 0.863598,-0.22013291 0.491066,0 0.863598,0.22013291 0.372533,0.2201329 0.575732,0.5926655 0.2032,0.37253258 0.2032,0.82973168 0,0.4571991 -0.2032,0.8297317 Q 66.13885,2.8678075 65.766317,3.0879404 65.393785,3.29114 64.902719,3.29114 q -0.491066,0 -0.863598,-0.2031996 -0.3556,-0.2201329 -0.558799,-0.5926655 -0.2032,-0.3725326 -0.2032,-0.8297317 z m 0.2032,3.2003937 q 0,-0.2370662 0.1016,-0.338666 0.118533,-0.1015998 0.338666,-0.1015998 h 1.947329 q 0.237066,0 0.338666,0.1015998 0.118533,0.1015998 0.118533,0.338666 v 7.4167851 q 0,0.237067 -0.118533,0.338666 -0.1016,0.1016 -0.338666,0.1016 h -1.947329 q -0.220133,0 -0.338666,-0.1016 -0.1016,-0.118533 -0.1016,-0.338666 z"/>
  <path d="m 68.661881,10.16606 q 0.1016,-0.1693332 0.220133,-0.1693332 0.118533,0 0.287866,0.1016002 0.507999,0.321732 1.151465,0.541865 0.660398,0.2032 1.185331,0.2032 0.440265,0 0.626532,-0.1016 0.186266,-0.118533 0.186266,-0.372533 0,-0.152399 -0.1016,-0.253999 -0.1016,-0.1016 -0.372532,-0.1862664 -0.270933,-0.084667 -0.626533,-0.1862663 L 70.727744,9.6072609 Q 69.37308,9.217795 68.695748,8.5912629 68.035349,7.9647308 68.035349,6.9317995 q 0,-0.8635983 0.440266,-1.4731971 0.457199,-0.6095988 1.219197,-0.9143982 0.778932,-0.3217327 1.74413,-0.3217327 2.133596,0 3.454394,1.015998 0.152399,0.1015998 0.152399,0.2370662 0,0.1015998 -0.08467,0.2370662 l -0.728132,1.2361309 q -0.1016,0.169333 -0.237066,0.169333 -0.118533,0 -0.270933,-0.1015998 -1.236131,-0.7111986 -2.133596,-0.7111986 -0.711199,0 -0.711199,0.4571991 0,0.169333 0.1524,0.2878661 0.1524,0.1185331 0.440266,0.2201329 0.304799,0.1015998 0.880532,0.2539995 1.015998,0.2709328 1.608663,0.6095988 0.609599,0.3217327 0.897465,0.8297317 0.304799,0.4910657 0.304799,1.2361305 0,1.269998 -0.897465,1.99813 -0.897464,0.728132 -2.675461,0.728132 -2.116662,0 -3.572926,-1.032932 -0.118533,-0.06773 -0.169333,-0.118533 -0.03387,-0.06773 -0.03387,-0.152399 0,-0.06773 0.08467,-0.237067 z"/>
  <path d="m 84.375984,11.249791 q 0.08467,0.169333 0.08467,0.287866 0,0.186266 -0.254,0.372533 -0.728132,0.524932 -1.574797,0.778932 -0.846665,0.237066 -1.964263,0.237066 -1.320797,0 -2.302928,-0.541866 -0.982132,-0.558799 -1.523997,-1.54093 -0.524933,-0.9821316 -0.524933,-2.2351958 0,-1.2699975 0.541866,-2.2690622 0.541865,-0.9990647 1.523997,-1.5578636 0.982131,-0.5587989 2.252129,-0.5587989 1.269997,0 2.218262,0.5587989 0.965198,0.5418656 1.49013,1.523997 0.524933,0.9651981 0.524933,2.2351956 v 0.4571991 q 0,0.169333 -0.06773,0.2370662 -0.06773,0.067733 -0.220133,0.067733 h -5.38479 q 0.1016,0.677332 0.575732,1.0498645 0.491066,0.372533 1.185331,0.372533 0.626533,0 1.134532,-0.1524 0.507999,-0.169333 1.015998,-0.474132 0.237066,-0.1524001 0.372532,-0.1524001 0.1524,0 0.270933,0.2032001 z M 81.971455,7.524465 Q 81.920656,6.9487328 81.565056,6.6100668 81.22639,6.2544675 80.633725,6.2544675 q -0.524933,0 -0.897465,0.3217327 -0.355599,0.3217327 -0.507999,0.9482648 z"/>
</svg>