<svg viewBox="0 0 24 24" fill="none" xmlns="http://www.w3.org/2000/svg" stroke="#333" stroke-width="1.5">
  <path d="m 4.3307731,16.350665 c -0.24,2.89 1.94,5.25 4.84,5.25 h 4.7899599 c 3.26,0 5.5,-2.63 4.96,-5.85 -0.57,-3.38 -3.83,-6.1499995 -7.26,-6.1499995 -3.7199599,0 -7.0199599,3.0399995 -7.3299599,6.7499995 z"/>
  <path opacity="0.4" d="m 9.7518974,6.701331 c 1.3806996,0 2.4999996,-1.11929 2.4999996,-2.5 0,-1.38071 -1.1193,-2.5 -2.4999996,-2.5 -1.3807095,0 -2.4999995,1.11929 -2.4999995,2.5 0,1.38071 1.11929,2.5 2.4999995,2.5 z"/>
  <path opacity="0.4" d="m 17.220933,7.901531 c 1.1045,0 2,-0.89544 2,-2 0,-1.10457 -0.8955,-2 -2,-2 -1.1046,0 -2,0.89543 -2,2 0,1.10456 0.8954,2 2,2 z"/>
  <path opacity="0.4" d="m 21.559069,12.620333 c 0.8284,0 1.5,-0.6716 1.5,-1.5 0,-0.8284 -0.6716,-1.4999995 -1.5,-1.4999995 -0.8284,0 -1.5,0.6715995 -1.5,1.4999995 0,0.8284 0.6716,1.5 1.5,1.5 z"/>
  <path opacity="0.4" d="m 3.0921641,10.300865 c 1.10457,0 2,-0.8954395 2,-1.9999995 0,-1.10457 -0.89543,-2 -2,-2 -1.10457,0 -2,0.89543 -2,2 0,1.10456 0.89543,1.9999995 2,1.9999995 z"/>
</svg>